<svg width="117" height="20" viewBox="0 0 117 20" fill="none" xmlns="http://www.w3.org/2000/svg">
<g clip-path="url(#clip0_3:620)">
<path d="M25.0318 11.0904L27.7777 14.0124C27.891 14.1354 28.0279 14.234 28.1801 14.3023C28.3323 14.3705 28.4967 14.4068 28.6633 14.4092C28.8299 14.4115 28.9952 14.3798 29.1493 14.3159C29.3033 14.252 29.4429 14.1573 29.5596 14.0375L35.6091 7.96553C35.8437 7.72918 35.9755 7.40863 35.9755 7.07438C35.9755 6.74014 35.8437 6.41959 35.6091 6.18324C35.3744 5.9469 35.0562 5.81412 34.7243 5.81412C34.3925 5.81412 34.0743 5.9469 33.8396 6.18324H33.8575L28.7185 11.3416L26.8743 9.3673C26.7607 9.24675 26.6252 9.14926 26.4751 9.08013C26.3248 9.01159 26.1625 8.97376 25.9976 8.96885C25.7495 8.96064 25.5045 9.02667 25.2936 9.1586C25.0827 9.29053 24.9153 9.48245 24.8126 9.71012C24.7448 9.86097 24.7073 10.0238 24.7022 10.1893C24.6964 10.3552 24.7237 10.5206 24.7824 10.6758C24.839 10.8285 24.9236 10.9691 25.0318 11.0904Z" fill="#3650DB"/>
<path d="M23.086 2.65637C23.2142 2.34433 23.2142 1.9938 23.086 1.68177C22.9896 1.44871 22.8267 1.24967 22.618 1.10975C22.4094 0.969839 22.1642 0.895328 21.9135 0.895623C21.5793 0.897006 21.2592 1.03116 21.0226 1.26895C19.8827 2.41463 18.9784 3.77553 18.3614 5.27373C17.7443 6.77192 17.4267 8.37799 17.4267 9.99999C17.4267 11.622 17.7443 13.2281 18.3614 14.7263C18.9784 16.2245 19.8827 17.5853 21.0226 18.731C21.2591 18.9687 21.5795 19.1022 21.9135 19.1026L21.9332 19.1205C22.1825 19.1242 22.4271 19.0525 22.6356 18.9147C22.8441 18.7769 23.0067 18.5793 23.1026 18.3475C23.1985 18.1157 23.2233 17.8602 23.1736 17.6141C23.124 17.3679 23.0022 17.1424 22.8241 16.9667C21.9169 16.0551 21.1972 14.9721 20.7061 13.7799C20.215 12.5877 19.9622 11.3096 19.9622 10.0188C19.9622 8.72807 20.215 7.44999 20.7061 6.25777C21.1972 5.06555 21.9169 3.98261 22.8241 3.07098C22.9373 2.95123 23.0263 2.8104 23.086 2.65637Z" fill="#3650DB"/>
<path d="M41.9882 9.98658C41.9875 8.36455 41.6696 6.75854 41.0526 5.26029C40.4356 3.76204 39.5317 2.40091 38.3923 1.25464C38.2159 1.07905 37.9921 0.959573 37.7488 0.911067C37.5055 0.862562 37.2534 0.887165 37.0238 0.981819C36.872 1.04603 36.7335 1.1386 36.6158 1.25464C36.5001 1.3721 36.4081 1.51108 36.3449 1.66387C36.2817 1.81687 36.2492 1.98095 36.2492 2.14668C36.2492 2.31241 36.2817 2.47649 36.3449 2.62949C36.4081 2.78228 36.5001 2.92126 36.6158 3.03872C37.523 3.95035 38.2427 5.03329 38.7338 6.22551C39.2249 7.41773 39.4776 8.69581 39.4776 9.98658C39.4776 11.2773 39.2249 12.5554 38.7338 13.7477C38.2427 14.9399 37.523 16.0228 36.6158 16.9344C36.4338 17.1114 36.3095 17.3398 36.2594 17.5896C36.206 17.8399 36.2309 18.1007 36.3307 18.3362C36.4288 18.5733 36.5967 18.7743 36.8118 18.9123C37.0268 19.0503 37.2787 19.1186 37.5335 19.108C37.8616 19.0957 38.1721 18.9554 38.3994 18.7167C39.5374 17.5702 40.4401 16.2091 41.0558 14.7112C41.6716 13.2133 41.9884 11.6078 41.9882 9.98658Z" fill="#3650DB"/>
<path d="M13.6616 1.94384C12.466 0.809491 10.8106 0.233345 8.74365 0.233345H1.28649C1.11754 0.233345 0.950249 0.266864 0.794162 0.331988C0.638074 0.397112 0.496254 0.492565 0.37679 0.612899C0.257326 0.733233 0.162557 0.876091 0.0979036 1.03331C0.0332501 1.19054 -2.68469e-05 1.35905 -2.68469e-05 1.52923V18.6611C-0.00569161 18.9684 0.0995692 19.2673 0.296201 19.5023C0.492832 19.7374 0.767468 19.8925 1.0691 19.939C1.24139 19.9603 1.4162 19.9446 1.58202 19.8928C1.74783 19.8411 1.90087 19.7546 2.03103 19.6389C2.16119 19.5232 2.26552 19.381 2.33714 19.2218C2.40875 19.0625 2.44602 18.8897 2.44649 18.7149V12.9068H8.74009C10.8088 12.9068 12.4642 12.3306 13.6581 11.1963C14.8519 10.0619 15.4649 8.50401 15.4649 6.56916C15.4649 4.63431 14.8608 3.08177 13.6616 1.94384ZM13.0184 6.57634C13.0184 7.83273 12.6442 8.8199 11.9083 9.52528C11.1724 10.2307 10.0569 10.5914 8.59932 10.5914H2.45006V2.5846H8.59932C10.0551 2.5846 11.1688 2.94357 11.9083 3.65074C12.6477 4.35791 13.0184 5.33789 13.0184 6.57634Z" fill="#3650DB"/>
<path d="M60.6497 13.7988C60.431 13.7932 60.2151 13.8492 60.0262 13.9605C59.8373 14.0718 59.683 14.234 59.5806 14.4288C59.1202 15.2926 58.454 16.0277 57.6419 16.5682C56.6298 17.2467 55.3362 17.5913 53.7949 17.5913C52.2892 17.5913 50.9884 17.2521 49.93 16.5808C48.8814 15.9227 48.0432 14.9743 47.5155 13.8491C46.9718 12.6363 46.6906 11.3208 46.6906 9.99013C46.6906 8.65944 46.9718 7.34397 47.5155 6.1312C48.0466 5.01203 48.8844 4.06917 49.93 3.4138C50.9991 2.74253 52.2892 2.4033 53.7949 2.4033C55.3362 2.4033 56.6316 2.74792 57.6419 3.42637C58.4525 3.96737 59.1178 4.70167 59.5788 5.56403C59.6798 5.75385 59.8298 5.91272 60.0129 6.02389C60.196 6.13506 60.4055 6.19441 60.6193 6.1957C60.8331 6.19699 61.0433 6.14015 61.2277 6.03119C61.4122 5.92224 61.564 5.76519 61.6672 5.57659C61.7671 5.39824 61.8186 5.19658 61.8168 4.99183C61.8149 4.78707 61.7596 4.58641 61.6565 4.40994C61.3467 3.87557 60.9818 3.37563 60.5678 2.91842C59.7297 2.00235 58.7106 1.27299 57.576 0.77717C56.3242 0.241839 54.9747 -0.0229262 53.6149 -2.21876e-06C51.6905 -2.21876e-06 50.0048 0.454095 48.6025 1.34613C47.2131 2.22687 46.093 3.47808 45.3666 4.96096C44.6251 6.53486 44.2404 8.25518 44.2404 9.99731C44.2404 11.7394 44.6251 13.4598 45.3666 15.0337C46.0929 16.5202 47.2151 17.7742 48.6078 18.6557C50.0084 19.5531 51.6958 20.0018 53.6203 20.0018C54.9782 20.0217 56.3252 19.7545 57.5742 19.2174C58.7118 18.7213 59.7317 17.9872 60.566 17.0636C60.9756 16.6084 61.338 16.1122 61.6476 15.5829C61.751 15.4076 61.8067 15.2079 61.8089 15.0039C61.8111 14.8 61.7597 14.5991 61.6601 14.4216C61.5613 14.2372 61.4158 14.0824 61.2383 13.973C61.0608 13.8636 60.8578 13.8035 60.6497 13.7988Z" fill="#3650DB"/>
<path d="M80.5462 17.97L73.1995 8.12705L79.5323 2.12867C79.7076 1.96694 79.8297 1.75516 79.8822 1.52166C79.9348 1.28815 79.9153 1.04406 79.8263 0.822017C79.756 0.638466 79.642 0.475125 79.4944 0.346361C79.3467 0.217598 79.1699 0.127355 78.9795 0.0835699C78.7891 0.039785 78.5909 0.0437987 78.4024 0.0952588C78.2139 0.146719 78.0408 0.24405 77.8984 0.378689L67.6098 10.0709V1.38021C67.6149 1.09066 67.525 0.807505 67.3538 0.574776C67.1827 0.342047 66.9401 0.172784 66.6636 0.0933088C66.4866 0.0460953 66.3012 0.0404105 66.1216 0.0766902C65.9421 0.11297 65.7732 0.190247 65.6279 0.30258C65.4827 0.414913 65.3649 0.55931 65.2837 0.724661C65.2026 0.890011 65.1601 1.07191 65.1597 1.25637V18.7149C65.1602 19.0417 65.2893 19.3551 65.5188 19.5862C65.7482 19.8174 66.0593 19.9474 66.3838 19.9479C66.7087 19.9479 67.0202 19.8181 67.2501 19.5869C67.4799 19.3557 67.6093 19.0421 67.6098 18.7149V13.377L71.4034 9.80703L78.5862 19.4525C78.7006 19.6054 78.8486 19.7296 79.0187 19.8152C79.1887 19.9008 79.3761 19.9456 79.5662 19.9461C79.7936 19.9458 80.0164 19.8818 80.2097 19.7612C80.403 19.6407 80.5592 19.4684 80.6609 19.2635C80.7626 19.0587 80.8057 18.8294 80.7855 18.6013C80.7652 18.3732 80.6824 18.1552 80.5462 17.9718V17.97Z" fill="#3650DB"/>
<path d="M96.9502 17.3885H86.2892V11.1909H95.7207C95.8777 11.1911 96.0332 11.1601 96.1782 11.0997C96.3233 11.0392 96.4551 10.9505 96.566 10.8386C96.677 10.7267 96.7648 10.5938 96.8247 10.4476C96.8845 10.3014 96.915 10.1447 96.9145 9.98655C96.9145 9.66809 96.7889 9.36268 96.5654 9.1375C96.3418 8.91231 96.0386 8.7858 95.7225 8.7858H86.2892V2.61332H96.9502C97.245 2.61838 97.5317 2.51544 97.7568 2.32364C97.982 2.13183 98.1303 1.86421 98.1743 1.5705C98.1947 1.40314 98.1797 1.23332 98.1301 1.07226C98.0806 0.911198 97.9976 0.762563 97.8868 0.636178C97.776 0.509793 97.6398 0.408534 97.4872 0.339093C97.3347 0.269651 97.1693 0.233609 97.0019 0.233345H85.033C84.8763 0.233345 84.7211 0.264461 84.5764 0.324917C84.4316 0.385373 84.3002 0.47398 84.1894 0.585671C84.0787 0.697361 83.9909 0.829945 83.9311 0.975834C83.8713 1.12172 83.8407 1.27805 83.8409 1.43589V18.5785C83.8409 18.8941 83.9654 19.1968 84.1869 19.4199C84.4085 19.6431 84.709 19.7685 85.0223 19.7685H97.0019C97.1693 19.7682 97.3347 19.7322 97.4872 19.6627C97.6398 19.5933 97.776 19.492 97.8868 19.3656C97.9976 19.2393 98.0806 19.0906 98.1301 18.9296C98.1797 18.7685 98.1947 18.5987 98.1743 18.4313C98.1303 18.1376 97.982 17.87 97.7568 17.6782C97.5317 17.4864 97.245 17.3834 96.9502 17.3885Z" fill="#3650DB"/>
<path d="M115.5 0.233337H102.098C101.807 0.228356 101.524 0.330087 101.302 0.519604C101.079 0.709121 100.933 0.973513 100.89 1.26358C100.87 1.42891 100.885 1.59667 100.934 1.75578C100.983 1.91489 101.064 2.06172 101.174 2.18657C101.283 2.31143 101.418 2.41146 101.569 2.48007C101.719 2.54868 101.883 2.58431 102.048 2.58459H107.549V18.6611C107.544 18.9683 107.649 19.267 107.845 19.5019C108.042 19.7369 108.316 19.8922 108.618 19.939C108.79 19.9603 108.965 19.9446 109.131 19.8929C109.296 19.8411 109.449 19.7545 109.579 19.6388C109.709 19.5231 109.813 19.3809 109.885 19.2217C109.956 19.0624 109.993 18.8897 109.994 18.7149V2.58459H115.446C115.737 2.58995 116.021 2.48836 116.243 2.29877C116.465 2.10919 116.611 1.84457 116.654 1.55434C116.674 1.38931 116.66 1.22186 116.611 1.063C116.562 0.904143 116.48 0.757489 116.371 0.632691C116.262 0.507894 116.128 0.40778 115.978 0.338947C115.828 0.270114 115.665 0.234123 115.5 0.233337Z" fill="#3650DB"/>
</g>
<defs>
<clipPath id="clip0_3:620">
<rect width="116.667" height="20" fill="white"/>
</clipPath>
</defs>
</svg>
